<svg width="25" height="20" viewBox="0 0 25 20" xmlns="http://www.w3.org/2000/svg">
    <path d="M23.915 16.43 14.113 1.059C13.716.397 13.036 0 12.28 0a2.08 2.08 0 0 0-1.832 1.058L.722 16.43a2.08 2.08 0 0 0 0 2.096c.378.642 1.02.624 1.568.605H22.593c.49 0 1.02-.057 1.34-.605a2.037 2.037 0 0 0-.018-2.096zm-11.578-.282c-.51 0-.888-.397-.888-.926s.378-.925.888-.925c.529 0 .888.377.888.925 0 .529-.378.926-.888.926zm.85-3.74a.875.875 0 0 1-.869.85.863.863 0 0 1-.869-.85l-.17-5.628a1.044 1.044 0 0 1 1.04-1.077c.585 0 1.057.491 1.038 1.077l-.17 5.628z" fill="#D0021B" fill-rule="nonzero"/>
</svg>
