<svg width="24" height="24" viewBox="0 0 24 24" xmlns="http://www.w3.org/2000/svg">
    <g fill="#13B600" fill-rule="nonzero">
        <path d="M12 0C5.372 0 0 5.372 0 12s5.372 12 12 12 12-5.372 12-12S18.628 0 12 0zm0 21.6c-5.291 0-9.6-4.309-9.6-9.6 0-5.291 4.309-9.6 9.6-9.6 5.291 0 9.6 4.309 9.6 9.6 0 5.291-4.309 9.6-9.6 9.6z"/>
        <path d="M9.43 16.786a1.186 1.186 0 0 1-.827-.525l-2.4-3.6a1.2 1.2 0 0 1 .33-1.663 1.2 1.2 0 0 1 1.664.331l1.658 2.49 6.175-5.145a1.204 1.204 0 0 1 1.691.151c.425.51.355 1.266-.15 1.692l-7.2 6c-.313.316-.884.278-.941.269z"/>
    </g>
</svg>
