<svg width="17" height="16" xmlns="http://www.w3.org/2000/svg">
    <path d="M4.83 15.89v-3.846h-.29c-.582-.015-1.174.026-1.746-.059A3.28 3.28 0 0 1 .016 8.78c-.021-1.832-.021-3.665 0-5.499C.039 1.428 1.515 0 3.392 0h9.604c1.748 0 3.098 1.148 3.37 2.881.032.269.042.54.032.809v4.97a3.308 3.308 0 0 1-2.623 3.302c-.27.056-.544.084-.82.082H9.347a.52.52 0 0 0-.315.118c-1.36 1.203-2.717 2.406-4.07 3.608-.025.036-.06.063-.131.12zm7.53-11.062a1.19 1.19 0 1 0 0 2.381 1.19 1.19 0 0 0 0-2.38zm-8.215 0a1.19 1.19 0 1 0-.003 2.381 1.19 1.19 0 0 0 .003-2.38zm4.113 0a1.19 1.19 0 1 0-.006 2.381 1.19 1.19 0 0 0 .006-2.38z" fill="#56A9FF" fill-rule="nonzero"/>
</svg>
