<svg width="16" height="16" viewBox="0 0 16 16" xmlns="http://www.w3.org/2000/svg">
    <g fill-rule="nonzero" fill="none">
        <path d="M15.253 0H.743C.548 0 .358.11.219.304.078.5 0 .764 0 1.04V14.96c0 .276.078.54.218.735.14.195.329.304.526.304h14.509c.198.001.388-.108.528-.303s.219-.46.219-.736V1.04c0-.277-.079-.541-.219-.736-.14-.195-.33-.304-.528-.303z" fill="#FFF"/>
        <path d="M3.881 4.091H3.24c-.524 0-.959.3-.997.69l-.051.379c0 .031.03.059.075.059h2.58c.044 0 .079-.028.072-.059l-.052-.38c-.02-.389-.465-.689-.986-.689zM3.522 2.22h.073c.367 0 .665.367.665.665v.248a.666.666 0 0 1-.665.666h-.073c-.367 0-.665-.368-.665-.666v-.248c0-.367.298-.665.665-.665zM3.881 8.591H3.24c-.524 0-.959.3-.997.69l-.051.379c0 .031.03.059.075.059h2.58c.044 0 .079-.028.072-.059l-.052-.38c-.02-.389-.465-.689-.986-.689zM3.522 6.72h.073c.367 0 .665.367.665.665v.248a.666.666 0 0 1-.665.666h-.073c-.367 0-.665-.368-.665-.666v-.248c0-.367.298-.665.665-.665zM3.881 13.091H3.24c-.524 0-.959.3-.997.69l-.051.379c0 .031.03.059.075.059h2.58c.044 0 .079-.028.072-.059l-.052-.38c-.02-.389-.465-.689-.986-.689zm-.359-1.872h.073c.367 0 .665.367.665.665v.248a.666.666 0 0 1-.665.666h-.073c-.367 0-.665-.368-.665-.666v-.248c0-.367.298-.665.665-.665zM6.013 3.224h7.4v.997h-7.4zM6.013 7.75h7.4v.997h-7.4zM6.013 12.227h7.4v.997h-7.4z" fill="#2069C1"/>
    </g>
</svg>
