<svg width="21" height="24" viewBox="0 0 21 24" xmlns="http://www.w3.org/2000/svg">
    <path d="M8.507 2.842a7.79 7.79 0 0 0-5.842 7.543v5.192a.867.867 0 0 1-.865.867c-.956 0-1.731.777-1.731 1.73v1.3c0 .238.192.431.433.431h19.903c.24 0 .434-.196.434-.431v-1.3c0-.956-.779-1.73-1.732-1.73a.863.863 0 0 1-.864-.867v-5.192A7.791 7.791 0 0 0 12.4 2.842v-.895A1.946 1.946 0 0 0 10.454 0a1.949 1.949 0 0 0-1.947 1.947v.895zM7.425 20.77h6.058a3.03 3.03 0 0 1-6.058 0z" fill="#56A9FF" fill-rule="nonzero"/>
</svg>
