<svg width="17" height="16" viewBox="0 0 17 16" xmlns="http://www.w3.org/2000/svg">
    <g fill="#2069C1" fill-rule="nonzero">
        <path d="M8.18 0a.364.364 0 0 1 .359.368v2.618a.365.365 0 0 1-.11.323.364.364 0 0 1-.308.1 4.422 4.422 0 0 0-4.374 4.426l.002.076v.02a.364.364 0 0 1 .004.113 4.423 4.423 0 0 0 4.368 4.219.365.365 0 0 1 .109 0 4.422 4.422 0 0 0 4.366-4.22.366.366 0 0 1 .005-.119v-.089a4.427 4.427 0 0 0-3.017-4.198.364.364 0 1 1 .231-.69 5.16 5.16 0 0 1 3.51 4.69h2.482a.375.375 0 0 1 .26.105.365.365 0 0 1-.26.622H13.3a5.162 5.162 0 0 1-4.762 4.614v2.655a.363.363 0 1 1-.726 0v-2.655a5.162 5.162 0 0 1-4.764-4.614H.543a.375.375 0 0 1-.26-.104.365.365 0 0 1 .26-.623h2.481c.1-2.63 2.18-4.76 4.788-4.942V.369A.365.365 0 0 1 8.18 0z"/>
        <path d="M8.175 5.622a2.384 2.384 0 0 1 2.379 2.379c0 1.31-1.07 2.378-2.379 2.378a2.383 2.383 0 0 1-2.378-2.378 2.383 2.383 0 0 1 2.378-2.379z"/>
    </g>
</svg>
