<svg width="24" height="24" viewBox="0 0 24 24" xmlns="http://www.w3.org/2000/svg">
    <g fill="none" fill-rule="evenodd">
        <path d="M0 0h24v24H0z"/>
        <path d="m7.786 10.384 4.89-4.221a.667.667 0 0 1 1.102.504v2.299C17.366 9.25 20 10.416 20 14.065c0 1.706-1.1 3.397-2.315 4.281-.38.276-.92-.07-.78-.517 1.07-3.422-.109-4.708-3.127-5.056v2.338a.667.667 0 0 1-1.103.504l-4.889-4.222a.667.667 0 0 1 0-1.009zm-3.555 1.01 4.889 4.221a.667.667 0 0 0 1.102-.504v-.44l-3.017-2.605a1.554 1.554 0 0 1 0-2.354l3.017-2.606v-.439a.667.667 0 0 0-1.102-.504l-4.89 4.221a.667.667 0 0 0 0 1.01z" fill="#B7B7B7"/>
    </g>
</svg>
