<svg width="17" height="16" xmlns="http://www.w3.org/2000/svg">
    <g fill="#56A9FF" fill-rule="nonzero">
        <path d="M.901 8.5a.5.5 0 0 1-.5-.5c0-4.411 3.59-8 8-8 2.137 0 4.147.833 5.657 2.344a.5.5 0 1 1-.707.707A6.95 6.95 0 0 0 8.401 1c-3.86 0-7 3.14-7 7a.5.5 0 0 1-.5.5z"/>
        <path d="M14.15 4h-2.749a.5.5 0 1 1 0-1h2.5V.5a.5.5 0 1 1 1 0v2.748A.752.752 0 0 1 14.15 4zM8.401 16a7.944 7.944 0 0 1-5.656-2.344.5.5 0 1 1 .707-.707A6.952 6.952 0 0 0 8.402 15c3.86 0 7-3.14 7-7a.5.5 0 1 1 1 0c0 4.411-3.59 8-8 8z"/>
        <path d="M2.401 16a.5.5 0 0 1-.5-.5v-2.748c0-.415.337-.752.752-.752h2.748a.5.5 0 1 1 0 1h-2.5v2.5a.5.5 0 0 1-.5.5z"/>
    </g>
</svg>
