<svg width="24" height="24" viewBox="0 0 24 24" xmlns="http://www.w3.org/2000/svg">
    <path d="M11.67.475C5.4.475.3 5.575.3 11.844c0 6.268 5.1 11.368 11.37 11.368 6.268 0 11.368-5.1 11.368-11.368 0-6.269-5.1-11.369-11.369-11.369zm0 20.842c-5.224 0-9.474-4.25-9.474-9.473 0-5.224 4.25-9.474 9.473-9.474 5.224 0 9.474 4.25 9.474 9.474s-4.25 9.473-9.474 9.473zm4.458-12.593-3.12 3.12 3.12 3.12a.947.947 0 1 1-1.34 1.339l-3.119-3.12-3.12 3.12a.945.945 0 0 1-1.339 0 .947.947 0 0 1 0-1.34l3.12-3.12-3.12-3.119a.947.947 0 1 1 1.34-1.34l3.12 3.12 3.119-3.12a.947.947 0 1 1 1.34 1.34z" fill="#D0021B" fill-rule="nonzero"/>
</svg>
