<svg width="18" height="24" viewBox="0 0 18 24" xmlns="http://www.w3.org/2000/svg">
    <g fill="#56A9FF" fill-rule="nonzero">
        <rect x="7.446" y="8.372" width="7.167" height="1" rx=".297"/>
        <rect x="7.446" y="10.026" width="7.167" height="1" rx=".297"/>
        <path d="M6.15 4.769H4.256a.414.414 0 1 0 0 .827h1.073l.82-.827zM4.255 6.422h.306v.827h-.306a.413.413 0 1 1 0-.827zM4.255 8.076h.306v.827h-.306a.413.413 0 1 1 0-.827zM4.256 9.73h.305v.828h-.305a.414.414 0 1 1 0-.829zM4.257 11.385h.304v.829h-.304a.414.414 0 1 1 0-.83zM5.874 14.673V6.836l2.132.089a.5.5 0 0 0 .515-.578L8.185 4.23h7.612a.5.5 0 0 1 .5.5v10.468l.576 1.068V4.603a1 1 0 0 0-1-1H8.601a1 1 0 0 0-.71.296L5.475 6.336a1 1 0 0 0-.29.704v7.076c.393.206.244.404.689.557z"/>
        <path d="M.186 5.679s-.904 10.883 11.416 10.883v-3.05l6.043 4.783-5.931 5.372v-2.99S-1.726 22.503.186 5.679z"/>
        <path d="M7.968 13.333h2.774v1.044H7.968a.522.522 0 1 1 0-1.044zM14.15 14.377a.463.463 0 0 0 .464-.463v-.06a.522.522 0 0 0-.522-.521h-1.01l1.068 1.044zM12.013 12.723h2.079a.522.522 0 1 0 0-1.044h-3.148l1.069 1.044zM7.968 11.68h2.774v1.043H7.968a.522.522 0 1 1 0-1.044zM2.222 11.066V3.335h2.204a.5.5 0 0 0 .5-.5V.804h7.13a.5.5 0 0 1 .5.5v1.318a.356.356 0 1 0 .713 0V1a1 1 0 0 0-1-1H4.998a1 1 0 0 0-.71.296L1.872 2.733a1 1 0 0 0-.29.704V9.76c.27.805.27.516.64 1.305z"/>
    </g>
</svg>
