<svg xmlns="http://www.w3.org/2000/svg" width="15" height="16" viewBox="0 0 15 16">
    <g fill="none" fill-rule="evenodd">
        <g fill="#56A9FF" fill-rule="nonzero">
            <g>
                <g>
                    <g>
                        <g>
                            <path d="M11.579 9.488c-.048-.043-.102-.08-.16-.107h-.048c-.046-.005-.093-.005-.139 0H11.2c-.058 0-.116.011-.17.032-.06.022-.115.057-.16.102L9.802 10.58c-.101.1-.158.237-.158.379 0 .142.057.279.158.379.1.1.236.157.378.157.143 0 .279-.056.379-.157l.155-.16v1.354c0 .295.238.534.533.534.295 0 .533-.24.533-.534v-1.381l.155.16c.21.21.548.21.757 0 .21-.21.21-.548 0-.757L11.58 9.488z" transform="translate(-1131.000000, -541.000000) translate(82.000000, 419.000000) translate(16.000000, 106.000000) translate(1033.000000, 16.000000) translate(-0.000000, 0.000000)"/>
                            <path d="M12.965 8h-1.232V.533C11.733.24 11.495 0 11.2 0H3.701c-.05.003-.098.014-.144.032-.016-.002-.032-.002-.048 0-.055.026-.105.06-.149.101l-3.2 3.2c-.041.044-.076.095-.101.15v.048c-.027.054-.047.111-.059.17v11.766c0 .294.239.533.533.533H11.2c.295 0 .533-.239.533-.533V14.4h1.232c.791-.003 1.432-.644 1.435-1.435v-3.53c-.003-.791-.644-1.432-1.435-1.435zM3.2 1.819V3.2H1.819L3.2 1.819zm7.467 13.114h-9.6V4.267h2.666c.295 0 .534-.24.534-.534V1.067h6.4V8H9.435c-.791.003-1.432.644-1.435 1.435v3.53c.003.791.644 1.432 1.435 1.435h1.232v.533zm2.666-1.968c0 .204-.164.368-.368.368h-3.53c-.098 0-.192-.038-.26-.107-.07-.07-.108-.163-.108-.26V9.434c0-.098.038-.192.107-.26.07-.07.163-.108.26-.108h3.531c.098 0 .192.038.26.107.07.07.108.163.108.26v3.531z" transform="translate(-1131.000000, -541.000000) translate(82.000000, 419.000000) translate(16.000000, 106.000000) translate(1033.000000, 16.000000) translate(-0.000000, 0.000000)"/>
                        </g>
                    </g>
                </g>
            </g>
        </g>
    </g>
</svg>
